<svg width="20" height="20" viewBox="0 0 20 20" fill="none" xmlns="http://www.w3.org/2000/svg">
<path d="M16 17.5H4C3.80109 17.5 3.61032 17.421 3.46967 17.2803C3.32902 17.1397 3.25 16.9489 3.25 16.75V3.25C3.25 3.05109 3.32902 2.86032 3.46967 2.71967C3.61032 2.57902 3.80109 2.5 4 2.5H16C16.1989 2.5 16.3897 2.57902 16.5303 2.71967C16.671 2.86032 16.75 3.05109 16.75 3.25V16.75C16.75 16.9489 16.671 17.1397 16.5303 17.2803C16.3897 17.421 16.1989 17.5 16 17.5ZM15.25 16V4H4.75V16H15.25ZM7 7.75H13V9.25H7V7.75ZM7 10.75H13V12.25H7V10.75Z" fill="#5C5C5C"/>
</svg>
