<svg width="24" height="24" viewBox="0 0 24 24" fill="none" xmlns="http://www.w3.org/2000/svg">
<path d="M17.6821 13.9323L14.78 11.0302C14.4872 10.7373 14.0122 10.7373 13.7194 11.0302L8.14863 16.601C6.83519 15.5003 6 13.8477 6 12C6 8.68629 8.68629 6 12 6C15.3137 6 18 8.68629 18 12C18 12.6761 17.8882 13.3259 17.6821 13.9323ZM9.44195 17.4289L14.2497 12.6212L16.9784 15.35C15.8994 16.9502 14.071 17.9998 11.9997 17.9998C11.0839 17.9998 10.2176 17.7951 9.44195 17.4289ZM12 19.5C16.1421 19.5 19.5 16.1421 19.5 12C19.5 7.85786 16.1421 4.5 12 4.5C7.85786 4.5 4.5 7.85786 4.5 12C4.5 16.1421 7.85786 19.5 12 19.5ZM11.25 10.5C11.25 11.3285 10.5785 12 9.75 12C8.92157 12 8.25 11.3285 8.25 10.5C8.25 9.67157 8.92157 9 9.75 9C10.5785 9 11.25 9.67157 11.25 10.5Z" fill="#5C5C5C"/>
</svg>
