<svg width="40" height="40" viewBox="0 0 40 40" fill="none" xmlns="http://www.w3.org/2000/svg">
<g clip-path="url(#clip0_388_3939)">
<mask id="mask0_388_3939" style="mask-type:luminance" maskUnits="userSpaceOnUse" x="0" y="0" width="40" height="40">
<path d="M0 0H40V40H0V0Z" fill="white"/>
</mask>
<g mask="url(#mask0_388_3939)">
<path d="M0 0H40V40H0V0Z" fill="#2A4FF6"/>
</g>
<mask id="mask1_388_3939" style="mask-type:luminance" maskUnits="userSpaceOnUse" x="21" y="7" width="13" height="8">
<path d="M21.7939 7.48579H33.7538V14.4499H21.7939V7.48579Z" fill="white"/>
</mask>
<g mask="url(#mask1_388_3939)">
<path d="M29.8091 7.49514H25.8848L23.9226 10.8915L21.9604 14.2911H29.8091L31.7697 10.8915L33.7334 7.49514H29.8091Z" fill="white"/>
</g>
<mask id="mask2_388_3939" style="mask-type:luminance" maskUnits="userSpaceOnUse" x="6" y="7" width="19" height="28">
<path d="M6.26318 7.48579H24.1858V34.6944H6.26318V7.48579Z" fill="white"/>
</mask>
<g mask="url(#mask2_388_3939)">
<path d="M19.9983 17.6921L18.0346 14.2911L16.074 10.8947L14.1118 7.49514H6.26318L8.22534 10.8947L10.1859 14.2911L12.1497 17.6906L14.1118 21.0885L16.074 24.4881L14.1118 27.8876L12.1497 31.284L10.1891 34.6835H18.0346L19.9983 31.284L21.9589 27.8876L23.9211 24.4881L21.9605 21.0885L19.9983 17.6921Z" fill="white"/>
</g>
<mask id="mask3_388_3939" style="mask-type:luminance" maskUnits="userSpaceOnUse" x="32" y="6" width="3" height="7">
<path d="M32.2822 6.5234H34.9903V12.7353H32.2822V6.5234Z" fill="white"/>
</mask>
<g mask="url(#mask3_388_3939)">
<path d="M33.5017 10.5785C33.3273 10.6315 33.1545 10.552 33.089 10.3792C33.0361 10.2063 33.1155 10.0335 33.2884 9.96652C33.4612 9.91357 33.6341 9.99299 33.7011 10.1658C33.754 10.3387 33.673 10.5256 33.5017 10.5785ZM34.9796 11.7496L34.3131 9.86062C34.2866 9.79366 34.2336 9.74071 34.1667 9.71424L33.2759 9.34205C33.0096 8.54317 32.2637 8.03706 31.5318 7.78322V7.478C31.5318 7.06532 31.1985 6.71961 30.7734 6.71961H29.8281V12.7213H30.7734C31.1861 12.7213 31.5318 12.3881 31.5318 11.9629V8.22393C32.1173 8.44974 32.6888 8.86241 32.8897 9.47442L32.4241 10.3262C32.3836 10.3932 32.3836 10.4586 32.4101 10.5256L33.075 12.4161C33.1155 12.5485 33.2619 12.6154 33.3958 12.5749L34.8192 12.0828C34.9515 12.0299 35.0185 11.8835 34.9796 11.7496Z" fill="#FA6018"/>
</g>
</g>
<defs>
<clipPath id="clip0_388_3939">
<path d="M0 10C0 4.47715 4.47715 0 10 0H30C35.5228 0 40 4.47715 40 10V30C40 35.5228 35.5228 40 30 40H10C4.47715 40 0 35.5228 0 30V10Z" fill="white"/>
</clipPath>
</defs>
</svg>
