<svg width="20" height="20" viewBox="0 0 20 20" fill="none" xmlns="http://www.w3.org/2000/svg">
<path d="M2.5 17.5C2.5 15.9087 3.13214 14.3826 4.25736 13.2574C5.38258 12.1321 6.9087 11.5 8.5 11.5C10.0913 11.5 11.6174 12.1321 12.7426 13.2574C13.8679 14.3826 14.5 15.9087 14.5 17.5H13C13 16.3065 12.5259 15.1619 11.682 14.318C10.8381 13.4741 9.69347 13 8.5 13C7.30653 13 6.16193 13.4741 5.31802 14.318C4.47411 15.1619 4 16.3065 4 17.5H2.5ZM8.5 10.75C6.01375 10.75 4 8.73625 4 6.25C4 3.76375 6.01375 1.75 8.5 1.75C10.9862 1.75 13 3.76375 13 6.25C13 8.73625 10.9862 10.75 8.5 10.75ZM8.5 9.25C10.1575 9.25 11.5 7.9075 11.5 6.25C11.5 4.5925 10.1575 3.25 8.5 3.25C6.8425 3.25 5.5 4.5925 5.5 6.25C5.5 7.9075 6.8425 9.25 8.5 9.25ZM14.713 12.0273C15.767 12.5019 16.6615 13.2709 17.2889 14.2418C17.9164 15.2126 18.2501 16.344 18.25 17.5H16.75C16.7502 16.633 16.4999 15.7844 16.0293 15.0562C15.5587 14.328 14.8878 13.7512 14.0972 13.3953L14.7123 12.0273H14.713ZM14.197 3.55975C14.9526 3.87122 15.5987 4.40015 16.0533 5.07942C16.5078 5.75869 16.7503 6.55768 16.75 7.375C16.7503 8.40425 16.3658 9.39642 15.6719 10.1566C14.978 10.9168 14.025 11.3901 13 11.4835V9.97375C13.5557 9.89416 14.0713 9.63851 14.471 9.24434C14.8707 8.85017 15.1335 8.33824 15.2209 7.7837C15.3082 7.22916 15.2155 6.66122 14.9563 6.16327C14.6971 5.66531 14.2851 5.26356 13.7808 5.017L14.197 3.55975Z" fill="#5C5C5C"/>
</svg>
