<svg width="28" height="28" viewBox="0 0 28 28" fill="none" xmlns="http://www.w3.org/2000/svg">
<path d="M5.6001 24.5C5.6001 22.2722 6.4851 20.1356 8.0604 18.5603C9.63571 16.985 11.7723 16.1 14.0001 16.1C16.2279 16.1 18.3645 16.985 19.9398 18.5603C21.5151 20.1356 22.4001 22.2722 22.4001 24.5H20.3001C20.3001 22.8291 19.6363 21.2267 18.4549 20.0452C17.2734 18.8637 15.671 18.2 14.0001 18.2C12.3292 18.2 10.7268 18.8637 9.54533 20.0452C8.36385 21.2267 7.7001 22.8291 7.7001 24.5H5.6001ZM14.0001 15.05C10.5193 15.05 7.7001 12.2307 7.7001 8.75C7.7001 5.26925 10.5193 2.45 14.0001 2.45C17.4808 2.45 20.3001 5.26925 20.3001 8.75C20.3001 12.2307 17.4808 15.05 14.0001 15.05ZM14.0001 12.95C16.3206 12.95 18.2001 11.0705 18.2001 8.75C18.2001 6.4295 16.3206 4.55 14.0001 4.55C11.6796 4.55 9.8001 6.4295 9.8001 8.75C9.8001 11.0705 11.6796 12.95 14.0001 12.95Z" fill="#335CFF"/>
</svg>
